Coordinates
version=1
nRows=38
nColumns=38
inDegrees=no

Units are S.I. units (second, meters, Newtons, ...)
If the header above contains a line with 'inDegrees', this indicates whether rotational values are in degrees (yes) or radians (no).

endheader
time	pelvis_tilt	pelvis_list	pelvis_rotation	pelvis_tx	pelvis_ty	pelvis_tz	hip_flexion_r	hip_adduction_r	hip_rotation_r	knee_angle_r	ankle_angle_r	subtalar_angle_r	mtp_angle_r	hip_flexion_l	hip_adduction_l	hip_rotation_l	knee_angle_l	ankle_angle_l	subtalar_angle_l	mtp_angle_l	lumbar_extension	lumbar_bending	lumbar_rotation	arm_flex_r	arm_add_r	arm_rot_r	elbow_flex_r	pro_sup_r	wrist_flex_r	wrist_dev_r	arm_flex_l	arm_add_l	arm_rot_l	elbow_flex_l	pro_sup_l	wrist_flex_l	wrist_dev_l
0	0.320009	1.48597	-1.82561	1.05946	1.23624	0.926477	0.37759	-0.144469	-0.310463	0.210832	0.155754	0	0	-0.348227	0.0601709	-0.091004	0	0.21979	0	0	-0.275991	-0.0467623	-0.20536	-0.11455	-0.209192	0.144759	0.701669	0.574138	0	0	0.114328	-0.482024	0.329302	0.750338	1.2145	0	0
0.01	0.368027	1.48799	-1.87479	1.05863	1.22682	0.924162	0.375624	-0.138545	-0.298091	0.166368	0.151502	0	0	-0.356964	0.062064	-0.0890106	0	0.224673	0	0	-0.274747	-0.0495488	-0.20154	-0.113696	-0.209865	0.142471	0.707193	0.57596	0	0	0.122559	-0.481514	0.33562	0.747662	1.21705	0	0
0.02	0.397425	1.48873	-1.90416	1.05771	1.21694	0.921976	0.371236	-0.133244	-0.288851	0.128804	0.143334	0	0	-0.367532	0.0618363	-0.0882605	0	0.231307	0	0	-0.275018	-0.0507321	-0.199659	-0.113656	-0.209829	0.138291	0.713353	0.577879	0	0	0.128084	-0.481381	0.339855	0.746316	1.2211	0	0
0.03	0.416303	1.48886	-1.92148	1.0569	1.2067	0.919909	0.366552	-0.129042	-0.284113	0.101115	0.134507	0	0	-0.379006	0.0602466	-0.0871876	0	0.238447	0	0	-0.275747	-0.0506992	-0.199364	-0.114666	-0.209429	0.132595	0.719393	0.579067	0	0	0.131838	-0.480855	0.34264	0.745141	1.22619	0	0
0.04	0.425862	1.48867	-1.92881	1.05612	1.19609	0.917946	0.362881	-0.125747	-0.282862	0.0854325	0.127003	0	0	-0.391163	0.0575808	-0.0858757	0	0.245361	0	0	-0.276424	-0.0496804	-0.199783	-0.116927	-0.209327	0.12707	0.724956	0.580371	0	0	0.133851	-0.479696	0.343967	0.743765	1.23207	0	0
0.05	0.449363	1.48861	-1.94682	1.05535	1.18476	0.916096	0.359979	-0.126429	-0.286122	0.081375	0.122024	0	0	-0.409207	0.0493672	-0.0948326	0	0.256919	0	0	-0.275531	-0.0493837	-0.2022	-0.121559	-0.209128	0.121776	0.729439	0.583008	0	0	0.134294	-0.477809	0.343805	0.74216	1.23859	0	0
0.06	0.439535	1.48685	-1.93271	1.05471	1.17378	0.914609	0.35764	-0.125275	-0.288267	0.090261	0.116041	0	0	-0.418672	0.0441169	-0.0920794	0	0.264477	0	0	-0.278115	-0.0462975	-0.204547	-0.1252	-0.209534	0.115972	0.733888	0.586639	0	0	0.133585	-0.475054	0.341979	0.740569	1.24541	0	0
0.07	0.428824	1.485	-1.91785	1.05403	1.16255	0.913254	0.357283	-0.124851	-0.289574	0.111036	0.10918	0	0	-0.425663	0.038675	-0.0950412	0.0141439	0.273801	0	0	-0.280386	-0.0429174	-0.20733	-0.128992	-0.209566	0.109094	0.738366	0.58889	0	0	0.130732	-0.471763	0.338083	0.739237	1.25225	0	0
0.08	0.42664	1.48371	-1.91152	1.05323	1.15105	0.91188	0.359334	-0.12536	-0.290977	0.140901	0.104795	0	0	-0.428937	0.0331313	-0.103213	0.0373909	0.285668	0	0	-0.281301	-0.0400501	-0.210467	-0.133554	-0.209483	0.102292	0.742444	0.590711	0	0	0.125662	-0.468359	0.33244	0.73849	1.25872	0	0
0.09	0.427121	1.48287	-1.90644	1.05242	1.13921	0.910557	0.361492	-0.126443	-0.294317	0.174268	0.105919	0	0	-0.429732	0.026322	-0.113122	0.0652451	0.2984	0	0	-0.280992	-0.0370282	-0.215111	-0.138855	-0.209188	0.0957798	0.746245	0.591413	0	0	0.118299	-0.464987	0.325706	0.738344	1.26475	0	0
0.1	0.416957	1.48262	-1.88987	1.05155	1.12707	0.909372	0.362406	-0.125946	-0.297037	0.204716	0.10786	0	0	-0.429117	0.0172316	-0.124274	0.0958259	0.310031	0	0	-0.279726	-0.0327163	-0.220681	-0.144283	-0.209123	0.0902817	0.749279	0.590647	0	0	0.108788	-0.461327	0.317901	0.738364	1.27028	0	0
0.11	0.394063	1.4831	-1.86114	1.0505	1.11489	0.908392	0.362379	-0.122386	-0.295942	0.227409	0.0995475	0	0	-0.426563	0.00616248	-0.136678	0.12927	0.320011	0	0	-0.278167	-0.0270013	-0.225578	-0.149274	-0.209436	0.0856064	0.751483	0.589364	0	0	0.098662	-0.456847	0.30947	0.73776	1.27461	0	0
0.12	0.353272	1.48407	-1.81545	1.04927	1.10274	0.907698	0.360826	-0.115634	-0.291879	0.241538	0.0768361	0	0	-0.421831	-0.00710979	-0.150304	0.166481	0.328445	0	0	-0.276653	-0.0195897	-0.228857	-0.153795	-0.210284	0.0820096	0.752406	0.588638	0	0	0.0890409	-0.451424	0.30177	0.735344	1.27789	0	0
0.13	0.293564	1.48506	-1.75123	1.0478	1.09056	0.907323	0.357498	-0.107038	-0.288084	0.252533	0.0494173	0	0	-0.414662	-0.0231447	-0.164501	0.208574	0.335047	0	0	-0.275604	-0.010544	-0.231552	-0.157385	-0.210954	0.0788722	0.75191	0.587641	0	0	0.0793245	-0.445435	0.294111	0.731807	1.27999	0	0
0.14	0.219029	1.48574	-1.67235	1.04616	1.07831	0.907204	0.353903	-0.0983039	-0.287181	0.267615	0.0281776	0	0	-0.404715	-0.0417149	-0.178304	0.256132	0.338763	0	0	-0.274811	-0.000280931	-0.233939	-0.160247	-0.211529	0.0758626	0.750412	0.585517	0	0	0.0689228	-0.439111	0.286511	0.728175	1.2811	0	0
0.15	0.134142	1.48554	-1.58279	1.04453	1.06585	0.907336	0.351029	-0.0906252	-0.290092	0.289846	0.0151891	0	0	-0.392738	-0.0625026	-0.190054	0.308189	0.337993	0	0	-0.273944	0.0109695	-0.236373	-0.163172	-0.212496	0.0731983	0.74815	0.582491	0	0	0.0577588	-0.432676	0.280526	0.724256	1.28145	0	0
0.16	0.0154257	1.48433	-1.46375	1.04341	1.05329	0.907523	0.350232	-0.0833514	-0.29636	0.317063	0.0106713	0	0	-0.375853	-0.0739836	-0.184105	0.36753	0.322184	0	0	-0.273253	0.0263754	-0.236367	-0.164492	-0.216063	0.0719274	0.746081	0.578955	0	0	0.0453405	-0.425107	0.276915	0.720429	1.28095	0	0
0.17	-0.0625629	1.48361	-1.38177	1.04189	1.04051	0.907936	0.350101	-0.0781387	-0.297436	0.34622	0.00942784	0	0	-0.357551	-0.0948381	-0.189326	0.427152	0.307463	0	0	-0.270322	0.0373287	-0.238212	-0.16772	-0.21858	0.0722958	0.74326	0.574371	0	0	0.0326341	-0.418485	0.27512	0.716871	1.27903	0	0
0.18	-0.152229	1.48525	-1.28983	1.04015	1.02795	0.908202	0.352455	-0.0709186	-0.29613	0.372943	0.0118605	0	0	-0.331636	-0.116545	-0.192628	0.49271	0.285518	0	0	-0.263949	0.047915	-0.238507	-0.170259	-0.221501	0.0749802	0.739157	0.56798	0	0	0.0194196	-0.41214	0.275166	0.713753	1.27561	0	0
0.19	-0.263198	1.48963	-1.17922	1.03802	1.01549	0.908136	0.357716	-0.0616494	-0.294625	0.396135	0.0187322	0	0	-0.297606	-0.138099	-0.19348	0.56277	0.254998	0	0	-0.253542	0.0578086	-0.236551	-0.172182	-0.224796	0.0797768	0.734336	0.559579	0	0	0.00582209	-0.405826	0.27657	0.71087	1.27101	0	0
0.2	-0.409788	1.49567	-1.03475	1.03555	1.00321	0.907755	0.36396	-0.0505155	-0.293919	0.413287	0.028931	0	0	-0.25642	-0.159303	-0.190288	0.635753	0.214721	0	0	-0.239563	0.0674895	-0.23299	-0.174245	-0.228849	0.0865077	0.730475	0.548817	0	0	-0.00815761	-0.399505	0.27935	0.708518	1.26571	0	0
0.21	-0.570687	1.50286	-0.872499	1.03216	0.991198	0.90713	0.369958	-0.0354565	-0.289157	0.425415	0.0368534	0	0	-0.210157	-0.189496	-0.187399	0.709053	0.172264	0	0	-0.222744	0.073155	-0.231209	-0.178675	-0.231579	0.0951939	0.728793	0.532325	0	0	-0.0215806	-0.39574	0.285067	0.706708	1.25805	0	0
0.22	-0.821091	1.50785	-0.625334	1.0296	0.979561	0.906119	0.376338	-0.0215002	-0.288719	0.430597	0.0487778	0	0	-0.157214	-0.208025	-0.173491	0.784485	0.116088	0	0	-0.203682	0.0824578	-0.226749	-0.182379	-0.238234	0.109137	0.730692	0.502662	0	0	-0.0351124	-0.391435	0.296106	0.706468	1.24301	0	0
0.23	-1.02499	1.50701	-0.426346	1.02706	0.967934	0.905597	0.375382	-0.00681966	-0.287207	0.431054	0.0608429	0	0	-0.111175	-0.223871	-0.159417	0.852969	0.0592637	0	0	-0.190041	0.0912095	-0.220026	-0.185616	-0.244973	0.121508	0.732666	0.48205	0	0	-0.0472497	-0.386694	0.306679	0.70656	1.23348	0	0
0.24	-1.18164	1.50273	-0.275297	1.02455	0.956401	0.905383	0.371714	0.00827303	-0.284572	0.432019	0.0736564	0	0	-0.0680422	-0.23894	-0.146266	0.918293	0.00421471	0	0	-0.179639	0.100224	-0.211874	-0.188605	-0.251245	0.130796	0.734672	0.468484	0	0	-0.0579296	-0.381605	0.317253	0.706528	1.22871	0	0
0.25	-1.282	1.49694	-0.181008	1.0221	0.944977	0.905567	0.366248	0.0228158	-0.279633	0.435472	0.087115	0	0	-0.0280604	-0.252247	-0.134405	0.979805	-0.0426547	0	0	-0.172538	0.108733	-0.203021	-0.191279	-0.257293	0.138539	0.737284	0.45596	0	0	-0.067407	-0.376794	0.329025	0.706392	1.22554	0	0
0.26	-1.29564	1.49146	-0.17341	1.01981	0.933568	0.906537	0.35485	0.0351933	-0.27283	0.439293	0.0994769	0	0	0.00336437	-0.262284	-0.125083	1.03333	-0.0705818	0	0	-0.172108	0.115204	-0.193853	-0.19324	-0.261688	0.141844	0.739232	0.449043	0	0	-0.0753254	-0.372017	0.339535	0.705819	1.22576	0	0
0.27	-1.26777	1.4878	-0.20775	1.01759	0.922204	0.908048	0.339924	0.0449266	-0.263868	0.442314	0.110452	0	0	0.0287106	-0.268317	-0.117692	1.07885	-0.0816834	0	0	-0.175169	0.1185	-0.184099	-0.194868	-0.264898	0.143679	0.740277	0.441937	0	0	-0.0819789	-0.36821	0.351917	0.70523	1.22733	0	0
0.28	-1.2105	1.48635	-0.271608	1.01537	0.911021	0.910031	0.32173	0.0514004	-0.254568	0.443231	0.119596	0	0	0.0503781	-0.270419	-0.111696	1.11904	-0.0784143	0	0	-0.181101	0.117967	-0.174034	-0.195416	-0.265881	0.143361	0.738459	0.43508	0	0	-0.0872282	-0.365458	0.365141	0.704417	1.23018	0	0
0.29	-1.15758	1.48649	-0.331203	1.01311	0.900121	0.912146	0.303142	0.0558912	-0.246009	0.441252	0.12705	0	0	0.0736628	-0.269913	-0.105051	1.15856	-0.060433	0	0	-0.186519	0.114848	-0.163718	-0.195077	-0.265299	0.142386	0.7332	0.426906	0	0	-0.0911282	-0.363375	0.380626	0.702084	1.2363	0	0
0.3	-1.10266	1.48803	-0.392705	1.01094	0.889481	0.914406	0.283448	0.0583056	-0.239271	0.435635	0.132947	0	0	0.0976655	-0.266406	-0.0983123	1.19509	-0.0329082	0	0	-0.191812	0.109598	-0.153935	-0.193933	-0.263485	0.140219	0.725793	0.421267	0	0	-0.0948493	-0.360844	0.393692	0.698476	1.24676	0	0
0.31	-1.05082	1.49068	-0.450873	1.00888	0.87906	0.916709	0.263308	0.0592222	-0.234553	0.426443	0.137736	0	0	0.122205	-0.26059	-0.0919462	1.22526	-0.00518779	0	0	-0.196129	0.10296	-0.145169	-0.192285	-0.260978	0.137673	0.716941	0.417454	0	0	-0.0988199	-0.358004	0.402702	0.696231	1.25844	0	0
0.32	-1.00322	1.49386	-0.504843	1.00684	0.868748	0.919011	0.24291	0.0595316	-0.231143	0.414418	0.141382	0	0	0.14674	-0.254154	-0.0872231	1.24807	0.0177244	0	0	-0.199236	0.0955833	-0.137108	-0.19037	-0.258301	0.13655	0.706679	0.414403	0	0	-0.103383	-0.354942	0.408563	0.695021	1.27013	0	0
0.33	-0.956059	1.49752	-0.558001	1.0049	0.858596	0.921286	0.222919	0.0589496	-0.228714	0.401558	0.144351	0	0	0.171456	-0.246845	-0.0834963	1.26453	0.0359593	0	0	-0.201597	0.0876405	-0.129531	-0.188544	-0.255766	0.13737	0.695783	0.411089	0	0	-0.107695	-0.351948	0.414877	0.692878	1.28164	0	0
0.34	-0.913163	1.50174	-0.60598	1.00311	0.848616	0.923447	0.203817	0.0578159	-0.226646	0.38798	0.146842	0	0	0.197098	-0.238774	-0.0800925	1.27561	0.0513886	0	0	-0.202949	0.0796285	-0.123008	-0.187563	-0.253642	0.139655	0.685916	0.406921	0	0	-0.112144	-0.349299	0.420553	0.691908	1.29378	0	0
0.35	-0.869689	1.50636	-0.653963	1.00151	0.838763	0.925481	0.185336	0.0561038	-0.224284	0.373983	0.148948	0	0	0.222888	-0.229962	-0.0774828	1.28156	0.0643407	0	0	-0.20359	0.0716676	-0.117235	-0.188004	-0.252527	0.143643	0.678871	0.401954	0	0	-0.116791	-0.346761	0.42522	0.692389	1.30588	0	0
0.36	-0.822304	1.51123	-0.705349	1.00005	0.829002	0.927404	0.167297	0.0537983	-0.221869	0.359676	0.150766	0	0	0.248294	-0.221063	-0.0767203	1.28254	0.0759286	0	0	-0.203661	0.0637932	-0.112367	-0.189437	-0.252299	0.149423	0.67416	0.396208	0	0	-0.121594	-0.344254	0.428769	0.693744	1.31656	0	0
0.37	-0.774474	1.51629	-0.757294	0.99865	0.819363	0.929202	0.150188	0.0512655	-0.219469	0.345647	0.152682	0	0	0.273293	-0.212223	-0.0777422	1.27878	0.086761	0	0	-0.20314	0.0560564	-0.107633	-0.190703	-0.252324	0.156565	0.669132	0.389555	0	0	-0.126334	-0.341732	0.431824	0.695232	1.32568	0	0
